<mxfile host="app.diagrams.net" modified="2023-03-30T18:09:25.377Z" agent="Mozilla/5.0 (Windows NT 10.0; Win64; x64; rv:109.0) Gecko/20100101 Firefox/111.0" etag="UgLPoZgaKM3YedsyxdeH" version="21.1.1">
  <diagram name="PÃ¡gina-1" id="XHDQbmk4agJDCf0YHSFw">
    <mxGraphModel dx="1120" dy="391" grid="1" gridSize="10" guides="1" tooltips="1" connect="1" arrows="1" fold="1" page="1" pageScale="1" pageWidth="827" pageHeight="1169" math="0" shadow="0">
      <root>
        <mxCell id="0" />
        <mxCell id="1" parent="0" />
        <mxCell id="Jh4PEy3uLfB6AriGemxG-2" value="" style="rounded=0;whiteSpace=wrap;html=1;" vertex="1" parent="1">
          <mxGeometry x="80" y="200" width="120" height="60" as="geometry" />
        </mxCell>
        <mxCell id="Jh4PEy3uLfB6AriGemxG-3" value="" style="rhombus;whiteSpace=wrap;html=1;" vertex="1" parent="1">
          <mxGeometry x="280" y="180" width="80" height="80" as="geometry" />
        </mxCell>
        <mxCell id="Jh4PEy3uLfB6AriGemxG-4" value="" style="rounded=0;whiteSpace=wrap;html=1;" vertex="1" parent="1">
          <mxGeometry x="440" y="200" width="120" height="60" as="geometry" />
        </mxCell>
        <mxCell id="Jh4PEy3uLfB6AriGemxG-6" value="classe" style="text;strokeColor=none;align=center;fillColor=none;html=1;verticalAlign=middle;whiteSpace=wrap;rounded=0;" vertex="1" parent="1">
          <mxGeometry x="110" y="215" width="60" height="30" as="geometry" />
        </mxCell>
        <mxCell id="Jh4PEy3uLfB6AriGemxG-7" value="aluno" style="text;strokeColor=none;align=center;fillColor=none;html=1;verticalAlign=middle;whiteSpace=wrap;rounded=0;" vertex="1" parent="1">
          <mxGeometry x="470" y="215" width="60" height="30" as="geometry" />
        </mxCell>
        <mxCell id="Jh4PEy3uLfB6AriGemxG-8" value="" style="line;strokeWidth=1;rotatable=0;dashed=0;labelPosition=right;align=left;verticalAlign=middle;spacingTop=0;spacingLeft=6;points=[];portConstraint=eastwest;" vertex="1" parent="1">
          <mxGeometry x="200" y="215" width="80" height="10" as="geometry" />
        </mxCell>
        <mxCell id="Jh4PEy3uLfB6AriGemxG-9" value="" style="line;strokeWidth=1;rotatable=0;dashed=0;labelPosition=right;align=left;verticalAlign=middle;spacingTop=0;spacingLeft=6;points=[];portConstraint=eastwest;" vertex="1" parent="1">
          <mxGeometry x="360" y="215" width="80" height="10" as="geometry" />
        </mxCell>
        <mxCell id="Jh4PEy3uLfB6AriGemxG-10" value="frequenta" style="text;strokeColor=none;align=center;fillColor=none;html=1;verticalAlign=middle;whiteSpace=wrap;rounded=0;" vertex="1" parent="1">
          <mxGeometry x="290" y="205" width="60" height="30" as="geometry" />
        </mxCell>
        <mxCell id="Jh4PEy3uLfB6AriGemxG-11" value="1" style="text;strokeColor=none;align=center;fillColor=none;html=1;verticalAlign=middle;whiteSpace=wrap;rounded=0;" vertex="1" parent="1">
          <mxGeometry x="220" y="195" width="60" height="30" as="geometry" />
        </mxCell>
        <mxCell id="Jh4PEy3uLfB6AriGemxG-12" value="N" style="text;strokeColor=none;align=center;fillColor=none;html=1;verticalAlign=middle;whiteSpace=wrap;rounded=0;" vertex="1" parent="1">
          <mxGeometry x="380" y="195" width="60" height="30" as="geometry" />
        </mxCell>
      </root>
    </mxGraphModel>
  </diagram>
</mxfile>
